HIERARCHY
ROOT Hips
{
	OFFSET 0.000000 0.000000 0.000000 
	CHANNELS 6 Xposition Yposition Zposition Zrotation Yrotation Xrotation
	JOINT LeftUpLeg
	{
		OFFSET 1.363060 -1.794630 0.839290 
		CHANNELS 3 Zrotation Yrotation Xrotation
		JOINT LeftLeg
		{
			OFFSET 2.448110 -6.726130 0.000000 
			CHANNELS 3 Zrotation Yrotation Xrotation
			JOINT LeftFoot
			{
				OFFSET 2.562200 -7.039590 0.000000 
				CHANNELS 3 Zrotation Yrotation Xrotation
				JOINT LeftToeBase
				{
					OFFSET 0.157640 -0.433110 2.322550 
					CHANNELS 3 Zrotation Yrotation Xrotation
					End Site
					{
						OFFSET 0.000000 0.000000 0.000000 
					}
				}
			}
		}
	}
	JOINT RightUpLeg
	{
		OFFSET -1.305520 -1.794630 0.839290 
		CHANNELS 3 Zrotation Yrotation Xrotation
		JOINT RightLeg
		{
			OFFSET -2.542530 -6.985550 0.000000 
			CHANNELS 3 Zrotation Yrotation Xrotation
			JOINT RightFoot
			{
				OFFSET -2.568260 -7.056230 0.000000 
				CHANNELS 3 Zrotation Yrotation Xrotation
				JOINT RightToeBase
				{
					OFFSET -0.164730 -0.452590 2.363150 
					CHANNELS 3 Zrotation Yrotation Xrotation
					End Site
					{
						OFFSET 0.000000 0.000000 0.000000 
					}
				}
			}
		}
	}
	JOINT Spine
	{
		OFFSET 0.028270 2.035590 -0.193380 
		CHANNELS 3 Zrotation Yrotation Xrotation
		JOINT Spine1
		{
			OFFSET 0.056720 2.048850 -0.042750 
			CHANNELS 3 Zrotation Yrotation Xrotation
			JOINT Neck1
			{
				OFFSET -0.054170 1.746240 0.172020 
				CHANNELS 3 Zrotation Yrotation Xrotation
				JOINT Head
				{
					OFFSET 0.104070 1.761360 -0.123970 
					CHANNELS 3 Zrotation Yrotation Xrotation
					End Site
					{
						OFFSET 0.000000 0.000000 0.000000 
					}
				}
			}
			JOINT LeftArm
			{
				OFFSET 3.362410 1.200890 -0.311210 
				CHANNELS 3 Zrotation Yrotation Xrotation
				JOINT LeftForeArm
				{
					OFFSET 4.983000 -0.000000 -0.000000 
					CHANNELS 3 Zrotation Yrotation Xrotation
					JOINT LeftHand
					{
						OFFSET 3.483560 -0.000000 -0.000000 
						CHANNELS 3 Zrotation Yrotation Xrotation
						JOINT LeftHandIndex1
						{
							OFFSET 0.715260 -0.000000 -0.000000 
							CHANNELS 3 Zrotation Yrotation Xrotation
							End Site
							{
								OFFSET 0.000000 0.000000 0.000000 
							}
						}
					}
				}
			}
			JOINT RightArm
			{
				OFFSET -3.136600 1.374050 -0.404650 
				CHANNELS 3 Zrotation Yrotation Xrotation
				JOINT RightForeArm
				{
					OFFSET -5.241900 -0.000000 -0.000000 
					CHANNELS 3 Zrotation Yrotation Xrotation
					JOINT RightHand
					{
						OFFSET -3.444170 -0.000000 -0.000000 
						CHANNELS 3 Zrotation Yrotation Xrotation
						JOINT RightHandIndex1
						{
							OFFSET -0.622530 -0.000000 -0.000000 
							CHANNELS 3 Zrotation Yrotation Xrotation
							End Site
							{
								OFFSET 0.000000 0.000000 0.000000 
							}
						}
					}
				}
			}
		}
	}
}
MOTION
Frames: 17
Frame Time: 0.041667
-0.852715 18.326910 4.998791 -4.354283 -1.312934 -0.803205 -10.112361 -10.540997 -8.071984 1.403230 7.363778 24.552668 -0.605705 6.155529 -13.090222 8.370200 -16.384900 -53.885400 21.901998 1.870861 4.649855 0.314437 1.122407 1.651989 0.480477 -6.790661 -13.494556 -0.189300 2.802100 -7.728300 1.923825 -0.113018 33.367892 -3.008881 0.665254 -18.259816 0.923674 -1.466848 24.034554 -0.245000 -0.342800 8.552200 -92.603201 5.553042 27.163351 27.020406 -36.724562 -7.604713 0.513640 0.171569 5.117235 -7.125000 0.000000 0.000000 93.640780 -10.252109 21.334065 -34.516062 42.916457 -10.730460 1.636678 -3.333740 5.931107 7.125000 0.000000 0.000000 
-0.876390 18.330823 5.009944 -3.857991 -1.386159 -0.625165 -10.538270 -10.567227 -8.015481 1.343193 7.246362 24.223087 -0.649580 6.346317 -13.118479 8.369300 -16.384300 -53.882300 21.482473 2.055715 4.462284 0.312532 1.114292 1.645575 0.475164 -6.771949 -13.514389 -0.172700 2.676800 -7.380200 1.602451 0.015278 33.352384 -2.463239 0.837631 -18.086751 0.745880 -1.437657 24.054516 -0.279600 -0.346400 8.561800 -92.618950 5.561759 27.288581 27.257249 -36.906659 -7.687549 0.485660 0.194157 5.308843 -7.125000 0.000000 0.000000 93.665050 -10.284180 21.236033 -34.494616 42.913631 -10.719243 1.643702 -3.336617 5.987814 7.125000 0.000000 0.000000 
-0.883728 18.332290 5.015814 -3.677019 -1.418967 -0.573018 -10.697906 -10.559599 -7.981612 1.322256 7.206534 24.110527 -0.667111 6.426818 -13.141103 8.390300 -16.398900 -53.956600 21.326305 2.119283 4.415961 0.312347 1.111522 1.643248 0.478523 -6.794246 -13.517556 -0.178300 2.719700 -7.499200 1.452263 0.074379 33.319430 -2.265506 0.900856 -18.031694 0.648582 -1.411696 24.090939 -0.301000 -0.342000 8.565300 -92.625410 5.590774 27.361028 27.374975 -37.000748 -7.731429 0.472874 0.203768 5.428083 -7.125000 0.000000 0.000000 93.674399 -10.357601 21.200565 -34.491618 42.907150 -10.711725 1.649112 -3.335392 6.029258 7.125000 0.000000 0.000000 
-0.882945 18.332682 5.019042 -3.647344 -1.414482 -0.597831 -10.737787 -10.587493 -7.857949 1.300497 7.167177 23.992933 -0.684600 6.507127 -13.163172 8.383400 -16.394100 -53.932200 21.298990 2.100034 4.453985 0.312709 1.111816 1.643287 0.483852 -6.819714 -13.507146 -0.182200 2.749300 -7.581600 1.366665 0.104792 33.277040 -2.241195 0.909840 -18.049371 0.601876 -1.391233 24.078666 -0.313400 -0.335700 8.545100 -92.638132 5.638556 27.355871 27.377289 -37.001234 -7.734547 0.475451 0.195675 5.472332 -7.125000 0.000000 0.000000 93.673953 -10.455853 21.199971 -34.505928 42.912954 -10.722067 1.650689 -3.336303 5.995825 7.125000 0.000000 0.000000 
-0.882260 18.332290 5.022564 -3.614692 -1.397288 -0.624146 -10.774153 -10.618957 -7.779008 1.292360 7.153560 23.951237 -0.690780 6.539487 -13.181778 8.376200 -16.389100 -53.906700 21.271669 2.065321 4.493137 0.312682 1.112578 1.643762 0.483500 -6.815213 -13.504610 -0.180200 2.734100 -7.539400 1.254197 0.135513 33.241961 -2.215721 0.915376 -18.059775 0.548569 -1.377440 24.048747 -0.329900 -0.332900 8.524200 -92.663179 5.687456 27.335401 27.374644 -37.001305 -7.738840 0.480421 0.197654 5.501156 -7.125000 0.000000 0.000000 93.691026 -10.524122 21.173352 -34.506300 42.914741 -10.729436 1.650897 -3.339748 5.980148 7.125000 0.000000 0.000000 
-0.882260 18.331214 5.026086 -3.611989 -1.361248 -0.653971 -10.775825 -10.604463 -7.747042 1.293256 7.150872 23.945299 -0.693178 6.529159 -13.117764 8.398700 -16.404800 -53.986500 21.268692 2.012033 4.533536 0.312148 1.113355 1.644551 0.476914 -6.775934 -13.504455 -0.178800 2.723400 -7.509500 1.222369 0.137490 33.239052 -2.212551 0.911299 -18.043662 0.464999 -1.360289 24.004745 -0.352900 -0.332600 8.507800 -92.697903 5.706789 27.342070 27.367146 -37.002113 -7.743317 0.486557 0.216308 5.396669 -7.125000 0.000000 0.000000 93.690888 -10.536455 21.150966 -34.476366 42.889850 -10.715557 1.649891 -3.342353 6.001129 7.125000 0.000000 0.000000 
-0.882358 18.330334 5.029804 -3.597922 -1.310065 -0.693930 -10.792209 -10.579304 -7.717346 1.296412 7.150405 23.951104 -0.691083 6.503301 -13.064978 8.401700 -16.406900 -53.997100 21.246354 1.943712 4.577448 0.311500 1.113940 1.645243 0.469480 -6.734141 -13.508455 -0.176200 2.704200 -7.456200 1.238686 0.119439 33.266724 -2.212427 0.904562 -18.012631 0.544014 -1.368496 23.968206 -0.330100 -0.330800 8.499200 -92.738754 5.682643 27.361883 27.353320 -36.995467 -7.738643 0.487531 0.228504 5.312699 -7.125000 0.000000 0.000000 93.672126 -10.519105 21.124161 -34.431048 42.851549 -10.693626 1.649134 -3.345255 6.027153 7.125000 0.000000 0.000000 
-0.882163 18.330138 5.033326 -3.604653 -1.282517 -0.702432 -10.786635 -10.577646 -7.705995 1.297547 7.150268 23.952982 -0.681847 6.467152 -13.074668 8.373500 -16.387200 -53.897100 21.249647 1.910109 4.590956 0.311766 1.113939 1.645304 0.472294 -6.749479 -13.506818 -0.179800 2.731300 -7.531500 1.267602 0.096457 33.261296 -2.231499 0.892227 -17.990303 0.775837 -1.385940 24.001610 -0.266000 -0.317400 8.511300 -92.794242 5.626165 27.276173 27.303414 -36.948443 -7.705578 0.480644 0.217975 5.473209 -7.125000 0.000000 0.000000 93.673123 -10.527037 21.084449 -34.403405 42.825998 -10.680169 1.651390 -3.347223 6.105897 7.125000 0.000000 0.000000 
-0.881771 18.330236 5.036946 -3.631558 -1.266950 -0.683843 -10.760954 -10.609038 -7.703793 1.297265 7.149174 23.947395 -0.668057 6.414416 -13.094041 8.357000 -16.375700 -53.838800 21.278708 1.895462 4.583112 0.312386 1.113555 1.645080 0.479012 -6.785286 -13.499168 -0.187400 2.787700 -7.688200 1.284726 0.081863 33.216095 -2.251525 0.880097 -17.969367 0.858575 -1.370381 24.104068 -0.242700 -0.299100 8.540700 -92.824369 5.605599 27.201204 27.267554 -36.906119 -7.674639 0.470736 0.198723 5.632650 -7.125000 0.000000 0.000000 93.689018 -10.547937 21.055357 -34.371409 42.792803 -10.657454 1.647272 -3.347437 6.185053 7.125000 0.000000 0.000000 
-0.881380 18.330236 5.041739 -3.593222 -1.233897 -0.678758 -10.799531 -10.609858 -7.690572 1.297277 7.147621 23.942028 -0.657599 6.368741 -13.088521 8.365700 -16.381700 -53.869400 21.240914 1.856704 4.591291 0.312496 1.113319 1.644975 0.480151 -6.793493 -13.502842 -0.194300 2.838300 -7.828800 1.213039 0.092409 33.160340 -2.218112 0.881948 -17.948306 0.797005 -1.354000 24.275187 -0.260200 -0.292300 8.585700 -92.818910 5.669413 27.229940 27.305302 -36.930939 -7.685551 0.465517 0.192945 5.593505 -7.125000 0.000000 0.000000 93.701530 -10.560598 21.024147 -34.311592 42.735743 -10.616379 1.639499 -3.347541 6.223792 7.125000 0.000000 0.000000 
-0.880695 18.329942 5.046240 -3.542474 -1.184294 -0.690781 -10.856593 -10.586797 -7.667726 1.296349 7.142651 23.932184 -0.655239 6.355259 -13.077042 8.371900 -16.386100 -53.891600 21.180936 1.799999 4.609678 0.312327 1.112688 1.644737 0.478273 -6.787894 -13.513009 -0.199900 2.878700 -7.941100 1.208428 0.090636 33.117201 -2.185350 0.887824 -17.932853 0.695361 -1.343534 24.332817 -0.282000 -0.298400 8.594600 -92.849723 5.730345 27.228145 27.355020 -36.978925 -7.715086 0.469162 0.201874 5.538013 -7.125000 0.000000 0.000000 93.689678 -10.590529 20.985994 -34.289415 42.707963 -10.599343 1.637867 -3.346575 6.240964 7.125000 0.000000 0.000000 
-0.879717 18.329551 5.050740 -3.530145 -1.127992 -0.707327 -10.890980 -10.582864 -7.631439 1.294474 7.131784 23.911392 -0.656976 6.351179 -13.045069 8.366300 -16.382100 -53.871400 21.145180 1.741053 4.627412 0.311946 1.111469 1.644337 0.474807 -6.771879 -13.521564 -0.200500 2.883600 -7.954800 1.356426 0.050892 33.117713 -2.182871 0.888238 -17.891104 0.541192 -1.308165 24.270801 -0.308400 -0.303600 8.577800 -92.913697 5.728917 27.227123 27.375351 -37.009711 -7.738832 0.478970 0.219540 5.424556 -7.125000 0.000000 0.000000 93.642328 -10.608308 20.976645 -34.305658 42.712750 -10.609666 1.633500 -3.346282 6.231775 7.125000 0.000000 0.000000 
-0.877858 18.328964 5.058078 -3.525756 -1.105403 -0.734595 -10.922034 -10.555508 -7.572304 1.292352 7.119745 23.887676 -0.657031 6.340797 -13.016426 8.367000 -16.382600 -53.874000 21.114304 1.706166 4.672286 0.311416 1.111087 1.644514 0.467050 -6.736116 -13.539907 -0.196300 2.853300 -7.870700 1.462714 0.017409 33.152829 -2.188370 0.884629 -17.822228 0.545307 -1.280580 24.311222 -0.297300 -0.292900 8.603600 -92.959749 5.707929 27.226114 27.377566 -37.013685 -7.738880 0.477644 0.225640 5.297031 -7.125000 0.000000 0.000000 93.597998 -10.584492 20.992467 -34.301736 42.707339 -10.613649 1.627552 -3.348842 6.216800 7.125000 0.000000 0.000000 
-0.875216 18.327986 5.066393 -3.490120 -1.112106 -0.777712 -10.981848 -10.519656 -7.484573 1.289593 7.108993 23.866740 -0.652676 6.328215 -13.036701 8.385000 -16.395200 -53.937700 21.054197 1.690452 4.742452 0.310809 1.111402 1.644969 0.458235 -6.694347 -13.560941 -0.193400 2.832000 -7.811500 1.454769 0.008752 33.176605 -2.164156 0.883798 -17.772108 0.538344 -1.224332 24.309368 -0.293900 -0.266000 8.610800 -92.981087 5.733572 27.194534 27.413065 -37.033823 -7.737152 0.461566 0.215880 5.287096 -7.125000 0.000000 0.000000 93.566257 -10.566699 21.007124 -34.293920 42.700752 -10.613751 1.627004 -3.350575 6.207088 7.125000 0.000000 0.000000 
-0.873260 18.327594 5.072753 -3.434728 -1.113882 -0.798065 -11.050672 -10.514498 -7.422747 1.287596 7.103068 23.854875 -0.650494 6.325083 -13.054883 8.405500 -16.409600 -54.010500 20.987635 1.679543 4.783115 0.310398 1.111284 1.645002 0.451893 -6.665605 -13.579040 -0.200500 2.883200 -7.953600 1.379771 0.023896 33.149851 -2.097723 0.892946 -17.739893 0.345494 -1.118733 24.247850 -0.346400 -0.227900 8.584900 -92.964010 5.805496 27.186765 27.471423 -37.070558 -7.753083 0.451778 0.208917 5.327019 -7.125000 0.000000 0.000000 93.553360 -10.580869 20.996449 -34.297510 42.698760 -10.609169 1.633638 -3.347439 6.226981 7.125000 0.000000 0.000000 
-0.872379 18.327692 5.078133 -3.409867 -1.118868 -0.785518 -11.067334 -10.539189 -7.404723 1.286268 7.105537 23.855804 -0.651348 6.339945 -13.085852 8.399000 -16.405000 -53.987300 20.972659 1.677854 4.794700 0.310160 1.111751 1.645469 0.443470 -6.627878 -13.602630 -0.199900 2.879300 -7.942800 1.214900 0.068219 33.090206 -2.041934 0.900861 -17.699665 0.282117 -1.034608 24.318960 -0.377400 -0.178800 8.591400 -92.900501 5.866865 27.143526 27.481524 -37.063196 -7.757413 0.454966 0.204460 5.445871 -7.125000 0.000000 0.000000 93.598144 -10.586585 20.953526 -34.314015 42.714459 -10.613148 1.642851 -3.344841 6.233390 7.125000 0.000000 0.000000 
-0.871597 18.327692 5.083319 -3.466491 -1.125710 -0.776888 -11.001784 -10.574814 -7.390792 1.285953 7.111671 23.865379 -0.648005 6.348247 -13.153456 8.375600 -16.388700 -53.904600 21.038767 1.672356 4.816309 0.309997 1.112585 1.646420 0.436059 -6.587990 -13.610202 -0.183900 2.762200 -7.617500 1.143178 0.092139 33.039759 -2.046969 0.893858 -17.656690 0.122134 -0.881803 24.345107 -0.428500 -0.106600 8.590700 -92.847524 5.875791 27.078808 27.450674 -37.022837 -7.744210 0.460249 0.203391 5.565973 -7.125000 0.000000 0.000000 93.646311 -10.571393 20.915643 -34.352165 42.754573 -10.636420 1.652949 -3.343964 6.155067 7.125000 0.000000 0.000000 
